<svg xmlns:xlink="http://www.w3.org/1999/xlink" xmlns="http://www.w3.org/2000/svg" viewBox="0 0 85 85" class="qodef-eye" width="86"  height="86" ><circle cx="42.5" cy="42.5" r="42.5" fill="#D2401E"></circle><path d="M57.3 43.2c-0.2 0.3-0.4 0.6-0.8 1 -0.3 0.4-0.9 1-1.9 2 -0.9 0.9-1.9 1.7-3 2.4 -1.1 0.7-2.4 1.3-4.1 1.9 -1.7 0.6-3.3 0.8-5.1 0.8 -5.5 0-10.5-2.7-14.8-8 -0.3-0.5-0.3-1 0-1.5 0.2-0.3 0.4-0.6 0.8-1 0.3-0.4 0.9-1 1.9-2 0.9-0.9 1.9-1.7 3-2.4 1.1-0.7 2.4-1.3 4.1-1.9 1.7-0.6 3.3-0.8 5.1-0.8 1.7 0 3.4 0.3 5.1 0.8 1.7 0.6 3 1.2 4.1 1.9 1.1 0.7 2.1 1.5 3 2.4 0.9 0.9 1.6 1.6 1.9 2 0.3 0.4 0.6 0.7 0.8 1C57.6 42.3 57.6 42.7 57.3 43.2zM54.6 42.5c-0.7-0.9-1.5-1.7-2.4-2.5 -0.9-0.8-2.3-1.6-4.1-2.5 -1.8-0.9-3.7-1.3-5.6-1.3 -1.9 0-3.8 0.4-5.6 1.3 -1.8 0.8-3.2 1.7-4.1 2.5 -0.9 0.8-1.7 1.6-2.4 2.5 0.7 0.9 1.5 1.7 2.4 2.5 0.9 0.8 2.3 1.6 4.1 2.5 1.8 0.9 3.7 1.3 5.6 1.3C47.1 48.7 51.1 46.6 54.6 42.5zM46.8 39.3c0.9 1.2 1.2 2.6 1 4 -0.2 1.5-0.9 2.7-2.1 3.6 -1.1 0.7-2.2 1.1-3.3 1.1 0 0-0.1 0-0.3 0 -0.2 0-0.3 0-0.4 0 -1.5-0.2-2.7-0.9-3.6-2.1 -0.9-1.2-1.2-2.5-1-4 0.2-1.5 0.9-2.6 2.1-3.5 1.2-0.9 2.6-1.3 4-1.1C44.7 37.4 45.9 38.1 46.8 39.3zM45.9 43c0.1-1-0.1-1.8-0.6-2.6 -0.5-0.7-1.3-1.2-2.3-1.3 -0.9-0.2-1.8 0-2.5 0.6 -0.7 0.5-1.2 1.3-1.3 2.3 -0.1 1 0.1 1.8 0.6 2.6 0.5 0.7 1.3 1.2 2.3 1.3 0.9 0.2 1.8 0 2.5-0.6C45.3 44.7 45.7 44 45.9 43zM42.6 40.6c-0.3 0.2-0.4 0.5-0.4 0.9s0.1 0.7 0.4 0.9c0.2 0.2 0.5 0.4 0.9 0.4 0.4 0 0.7-0.1 0.9-0.4 0.3-0.3 0.4-0.6 0.4-0.9 0-0.3-0.1-0.6-0.4-0.9 -0.3-0.3-0.6-0.4-0.9-0.4S42.8 40.3 42.6 40.6z" fill="#FFFFFF"></path></svg>